<svg width="145" height="114" viewBox="0 0 145 114" version="1.1" xmlns="http://www.w3.org/2000/svg" xmlns:xlink="http://www.w3.org/1999/xlink">
<title>browser-BkiDDWUIM</title>
<desc>Created using Figma</desc>
<g id="Canvas" transform="translate(-690 -905)">
<g id="browser-BkiDDWUIM">
<g id="Group">
<g id="Group">
<g id="Vector">
<use xlink:href="#path0_fill" transform="translate(690 905)" fill="#FFFFFF"/>
</g>
</g>
</g>
</g>
</g>
<defs>
<path id="path0_fill" fill-rule="evenodd" d="M 5.17857 -1.597e-08C 2.30959 -1.597e-08 0 2.31104 0 5.18182L 0 24.1818L 145 24.1818L 145 5.18182C 145 2.31104 142.69 -1.597e-08 139.821 -1.597e-08L 5.17857 -1.597e-08ZM 13.8095 8.63636L 82.8571 8.63636C 84.6811 8.61056 86.3635 10.2656 86.3635 12.0909C 86.3635 13.9162 84.6811 15.5712 82.8571 15.5455L 13.8095 15.5455C 11.9996 15.5455 10.352 13.7246 10.3571 12.0909C 10.3623 10.4676 11.8249 8.63636 13.8095 8.63636ZM 103.571 8.63636C 105.478 8.63636 107.024 10.183 107.024 12.0909C 107.024 13.9988 105.478 15.5455 103.571 15.5455C 101.665 15.5455 100.119 13.9988 100.119 12.0909C 100.119 10.183 101.665 8.63636 103.571 8.63636ZM 117.381 8.63636C 119.288 8.63636 120.833 10.183 120.833 12.0909C 120.833 13.9988 119.288 15.5455 117.381 15.5455C 115.474 15.5455 113.929 13.9988 113.929 12.0909C 113.929 10.183 115.474 8.63636 117.381 8.63636ZM 131.19 8.63636C 133.097 8.63636 134.643 10.183 134.643 12.0909C 134.643 13.9988 133.097 15.5455 131.19 15.5455C 129.284 15.5455 127.738 13.9988 127.738 12.0909C 127.738 10.183 129.284 8.63636 131.19 8.63636ZM 0 31.0909L 0 108.818C 0 111.689 2.30959 114 5.17857 114L 139.821 114C 142.69 114 145 111.689 145 108.818L 145 31.0909L 0 31.0909Z"/>
</defs>
</svg>
