<svg width="74" height="114" viewBox="0 0 74 114" version="1.1" xmlns="http://www.w3.org/2000/svg" xmlns:xlink="http://www.w3.org/1999/xlink">
<title>Cell phone-BJepsWs_z</title>
<desc>Created using Figma</desc>
<g id="Canvas" transform="translate(-289 -905)">
<g id="Cell phone-BJepsWs_z">
<g id="Group">
<g id="Group">
<g id="Vector">
<use xlink:href="#path0_fill" transform="translate(289 905)" fill="#FFFFFF"/>
</g>
</g>
</g>
</g>
</g>
<defs>
<path id="path0_fill" fill-rule="evenodd" d="M 73.2857 8.14285C 73.2857 3.63171 69.654 -1.25478e-08 65.1428 -1.25478e-08L 8.14286 -1.25478e-08C 3.63171 -1.25478e-08 0 3.63171 0 8.14285L 0 16.2857L 73.2857 16.2857L 73.2857 8.14285ZM 73.2857 21.7143L 0 21.7143L 0 92.2857L 73.2857 92.2857L 73.2857 21.7143ZM 73.2857 97.7143L 0 97.7143L 0 105.857C 0 110.368 3.63171 114 8.14286 114L 65.1428 114C 69.654 114 73.2857 110.368 73.2857 105.857L 73.2857 97.7143ZM 50.2143 9.5C 50.2143 10.9991 48.9991 12.2143 47.5 12.2143C 46.0009 12.2143 44.7857 10.9991 44.7857 9.5C 44.7857 8.0009 46.0009 6.78571 47.5 6.78571C 48.9991 6.78571 50.2143 8.0009 50.2143 9.5ZM 40.7143 105.857C 40.7143 108.106 38.8915 109.929 36.6428 109.929C 34.3943 109.929 32.5714 108.106 32.5714 105.857C 32.5714 103.609 34.3943 101.786 36.6428 101.786C 38.8915 101.786 40.7143 103.609 40.7143 105.857ZM 39.3571 9.5C 39.3571 10.7795 38.1829 12.2143 36.6428 12.2143L 25.7857 12.2143C 24.3518 12.2346 23.0291 10.9341 23.0291 9.5C 23.0291 8.0659 24.3518 6.76549 25.7857 6.78571L 36.6428 6.78571C 37.9847 6.78571 39.3571 8.22048 39.3571 9.5Z"/>
</defs>
</svg>
