<svg width="19" height="19" viewBox="0 0 19 19" version="1.1" xmlns="http://www.w3.org/2000/svg" xmlns:xlink="http://www.w3.org/1999/xlink">
<title>Ellipse</title>
<desc>Created using Figma</desc>
<g id="Canvas" transform="translate(-316 -1490)">
<g id="Ellipse">
<mask id="mask0_outline_ins">
<use xlink:href="#path0_fill" fill="white" transform="translate(316 1490)"/>
</mask>
<g mask="url(#mask0_outline_ins)">
<use xlink:href="#path1_stroke_2x" transform="translate(316 1490)" fill="#49C5B6"/>
</g>
</g>
</g>
<defs>
<path id="path0_fill" d="M 19 9.5C 19 14.7467 14.7467 19 9.5 19C 4.25329 19 0 14.7467 0 9.5C 0 4.25329 4.25329 0 9.5 0C 14.7467 0 19 4.25329 19 9.5Z"/>
<path id="path1_stroke_2x" d="M 17 9.5C 17 13.6421 13.6421 17 9.5 17L 9.5 21C 15.8513 21 21 15.8513 21 9.5L 17 9.5ZM 9.5 17C 5.35786 17 2 13.6421 2 9.5L -2 9.5C -2 15.8513 3.14873 21 9.5 21L 9.5 17ZM 2 9.5C 2 5.35786 5.35786 2 9.5 2L 9.5 -2C 3.14873 -2 -2 3.14873 -2 9.5L 2 9.5ZM 9.5 2C 13.6421 2 17 5.35786 17 9.5L 21 9.5C 21 3.14873 15.8513 -2 9.5 -2L 9.5 2Z"/>
</defs>
</svg>
