<svg width="139" height="110" viewBox="0 0 139 110" version="1.1" xmlns="http://www.w3.org/2000/svg" xmlns:xlink="http://www.w3.org/1999/xlink">
<title>Group</title>
<desc>Created using Figma</desc>
<g id="Canvas" transform="translate(-1148 -909)">
<g id="Group">
<g id="Group">
<g id="Vector">
<use xlink:href="#path0_fill" transform="translate(1148 909)" fill="#FFFFFF"/>
</g>
</g>
</g>
</g>
<defs>
<path id="path0_fill" fill-rule="evenodd" d="M 134.151 1.85596e-09C 133.4 1.85596e-09 132.571 0.27834 132.03 0.758272L 119.1 12.0818C 117.816 13.1934 117.66 15.3733 118.771 16.6572C 119.882 17.9411 122.06 18.0974 123.342 16.9853L 136.273 5.66177C 136.978 5.07144 137.384 4.16828 137.384 3.23529C 137.384 2.80512 137.363 2.38269 137.203 1.98178C 136.703 0.725565 135.376 1.85596e-09 134.151 1.85596e-09ZM 96.9767 4.60018L 42.0233 27.7528L 42.0233 66.0708L 96.9767 89.2233L 96.9767 4.60018ZM 11.314 29.1176C 5.04603 29.1176 0 34.168 0 40.4412L 0 53.3824C 0 59.6556 5.04603 64.7059 11.314 64.7059L 35.5581 64.7059L 35.5581 29.1176L 11.314 29.1176ZM 103.442 35.5882L 103.442 58.2353L 109.907 58.2353C 111.698 58.2353 113.14 56.7924 113.14 55L 113.14 38.8235C 113.14 37.0312 111.698 35.5882 109.907 35.5882L 103.442 35.5882ZM 119.605 46.9118C 119.605 48.4369 121.143 50.1471 122.837 50.1471L 135.767 50.1471C 137.475 50.1471 139 48.4369 139 46.9118C 139 45.3866 137.475 43.6765 135.767 43.6765L 122.837 43.6765C 120.964 43.6765 119.605 45.3866 119.605 46.9118ZM 14.294 71.1765L 3.23256 110L 25.8605 110L 36.9219 71.1765L 14.294 71.1765ZM 120.968 75.9789C 119.687 76.0599 118.499 76.9801 118.1 78.2012C 117.7 79.4222 118.114 80.8674 119.1 81.6912L 132.03 93.0147C 132.604 93.512 133.395 93.8211 134.151 93.8235C 135.086 93.8264 135.987 93.3957 136.601 92.6861C 137.095 92.1155 137.378 91.3404 137.384 90.5882C 137.391 89.6483 136.985 88.7288 136.273 88.1112L 123.342 76.7877C 122.701 76.2171 121.825 75.9186 120.968 75.9789Z"/>
</defs>
</svg>
